<?xml version="1.0" encoding="UTF-8" standalone="no"?>
<svg width="16px" height="16px" viewBox="0 0 16 16" version="1.1" xmlns="http://www.w3.org/2000/svg" xmlns:xlink="http://www.w3.org/1999/xlink">
    <!-- Generator: Sketch 44.1 (41455) - http://www.bohemiancoding.com/sketch -->
    <title>Icon/comments</title>
    <desc>Created with Sketch.</desc>
    <defs></defs>
    <g id="Symbols" stroke="none" stroke-width="1" fill="none" fill-rule="evenodd">
        <g id="Icon/comments" stroke="#FFFFFF">
            <path d="M8.853125,12.137931 L6.25,12.137931 L5.59375,12.137931 L5.42815625,12.137931 L3.65146875,13.8181379 C3.5326875,13.9304828 3.368625,14 3.1875,14 C3.0015625,13.9971034 2.84034375,13.9288276 2.72353125,13.8181379 C2.689625,13.784 2.6646875,13.7564828 2.64325,13.7264828 C2.63471875,13.7144828 2.62903125,13.7010345 2.62159375,13.6882069 C2.60803125,13.6664828 2.593375,13.6445517 2.582875,13.6209655 C2.57784375,13.6095862 2.57565625,13.5973793 2.57128125,13.5857931 C2.56121875,13.5591034 2.55071875,13.5326207 2.54459375,13.5042759 C2.53584375,13.463931 2.53125,13.4221379 2.53125,13.3793103 L2.53125,12.137931 L2.421875,12.137931 L1.65603125,12.137931 C1.29378125,12.137931 1,11.860069 1,11.5172414 L1,2.62068966 C1,2.27806897 1.29378125,2 1.65625,2 L14.34375,2 C14.7062187,2 15,2.27806897 15,2.62068966 L15,11.5172414 C15,11.860069 14.7062187,12.137931 14.34375,12.137931 L8.853125,12.137931 Z" id="Page-1"></path>
        </g>
    </g>
</svg>